<?xml version="1.0" encoding="UTF-8" standalone="no"?>
<svg width="221.897mm" height="25.4mm"
 xmlns="http://www.w3.org/2000/svg" xmlns:xlink="http://www.w3.org/1999/xlink"  version="1.2" baseProfile="tiny">
<title>Qt SVG Document</title>
<desc>Generated with Qt</desc>
<defs>
</defs>
<g fill="none" stroke="black" stroke-width="1" fill-rule="evenodd" stroke-linecap="square" stroke-linejoin="bevel" >

<g fill="none" stroke="#000000" stroke-opacity="1" stroke-width="1" stroke-linecap="square" stroke-linejoin="bevel" transform="matrix(1,0,0,1,0,0)"
font-family="Sans Serif" font-size="9" font-weight="400" font-style="normal" 
>
</g>

<g fill="none" stroke="#000000" stroke-opacity="1" stroke-width="1" stroke-linecap="square" stroke-linejoin="bevel" transform="matrix(1,0,0,1,0,0)"
font-family="Sans Serif" font-size="9" font-weight="400" font-style="normal" 
>
</g>

<g fill="none" stroke="#000000" stroke-opacity="1" stroke-width="1" stroke-linecap="square" stroke-linejoin="bevel" transform="matrix(2,0,0,2,0,72)"
font-family="Sans Serif" font-size="9" font-weight="400" font-style="normal" 
>
</g>

<g fill="#ffffff" fill-opacity="1" stroke="none" transform="matrix(2,0,0,2,0,72)"
font-family="Sans Serif" font-size="9" font-weight="400" font-style="normal" 
>
<rect x="0" y="-36" width="314.29" height="36"/>
</g>

<g fill="none" stroke="#000000" stroke-opacity="1" stroke-width="1" stroke-linecap="square" stroke-linejoin="bevel" transform="matrix(2,0,0,2,0,72)"
font-family="Sans Serif" font-size="9" font-weight="400" font-style="normal" 
>
</g>

<g fill="none" stroke="#000000" stroke-opacity="1" stroke-width="1" stroke-linecap="square" stroke-linejoin="bevel" transform="matrix(2,0,0,2,0,72)"
font-family="Sans Serif" font-size="9" font-weight="400" font-style="normal" 
>
</g>

<g fill="none" stroke="#000000" stroke-opacity="1" stroke-width="1" stroke-linecap="square" stroke-linejoin="bevel" transform="matrix(2,0,0,2,0,72)"
font-family="Sans Serif" font-size="9" font-weight="400" font-style="normal" 
>
</g>

<g fill="none" stroke="#000000" stroke-opacity="1" stroke-width="1" stroke-linecap="square" stroke-linejoin="bevel" transform="matrix(2,0,0,2,0,72)"
font-family="Sans Serif" font-size="9" font-weight="400" font-style="normal" 
>
</g>

<g fill="none" stroke="#000000" stroke-opacity="1" stroke-width="1" stroke-linecap="square" stroke-linejoin="round" transform="matrix(2,0,0,2,0,72)"
font-family="Sans Serif" font-size="9" font-weight="400" font-style="normal" 
>
<ellipse cx="287.29" cy="-18" rx="26.5" ry="17.5"/>
</g>

<g fill="none" stroke="#000000" stroke-opacity="1" stroke-width="1" stroke-linecap="square" stroke-linejoin="bevel" transform="matrix(2,0,0,2,0,72)"
font-family="Sans Serif" font-size="9" font-weight="400" font-style="normal" 
>
</g>

<g fill="none" stroke="#000000" stroke-opacity="1" stroke-width="1" stroke-linecap="square" stroke-linejoin="bevel" transform="matrix(2,0,0,2,552.83,23)"
font-family="Sans Serif" font-size="9" font-weight="400" font-style="normal" 
>
</g>

<g fill="none" stroke="#000000" stroke-opacity="1" stroke-width="1" stroke-linecap="square" stroke-linejoin="bevel" transform="matrix(2,0,0,2,552.83,23)"
font-family="sans" font-size="11" font-weight="100" font-style="normal" 
>
</g>

<g fill="#000000" fill-opacity="1" stroke="#000000" stroke-opacity="1" stroke-width="1" stroke-linecap="square" stroke-linejoin="round" transform="matrix(2,0,0,2,552.83,23)"
font-family="sans" font-size="11" font-weight="100" font-style="normal" 
>
<path vector-effect="none" fill-rule="nonzero" d="M2.96875,1.98438 L3.53125,1.98438 L0.734375,11.0156 L0.171875,11.0156 L2.96875,1.98438 M5.46875,2.28125 L5.46875,3.98438 L7.5,3.98438 L7.5,4.40625 L5.46875,4.40625 L5.46875,8.01562 C5.46875,8.47396 5.52604,8.79688 5.64062,8.98438 C5.89062,9.38021 6.25,9.57812 6.71875,9.57812 L7.5,9.57812 L7.5,10 L6.73438,10 C6.24479,10 5.82812,9.85677 5.48438,9.57031 C5.14062,9.28385 4.96875,8.76562 4.96875,8.01562 L4.96875,4.40625 L4.25,4.40625 L4.25,3.98438 L4.96875,3.98438 L4.96875,2.28125 L5.46875,2.28125 M13.9531,6.75 L13.9531,7.0625 L9.39062,7.0625 C9.39062,8.02083 9.57812,8.69792 9.95312,9.09375 C10.3698,9.52083 10.9844,9.73438 11.7969,9.73438 C12.0156,9.73438 12.3021,9.6875 12.6562,9.59375 C13.0104,9.5 13.3646,9.35938 13.7188,9.17188 L13.7188,9.6875 C13.3646,9.84375 13.0026,9.96094 12.6328,10.0391 C12.263,10.1172 11.9688,10.1562 11.75,10.1562 C10.8229,10.1562 10.125,9.90625 9.65625,9.40625 C9.14583,8.875 8.89062,8.09375 8.89062,7.0625 C8.89062,5.98958 9.11979,5.1875 9.57812,4.65625 C10.0573,4.11458 10.724,3.84375 11.5781,3.84375 C12.3594,3.84375 12.9531,4.10417 13.3594,4.625 C13.7552,5.16667 13.9531,5.875 13.9531,6.75 M13.4531,6.64062 C13.4531,5.79688 13.2604,5.18229 12.875,4.79688 C12.5625,4.45312 12.1302,4.28125 11.5781,4.28125 C10.9844,4.28125 10.4844,4.45833 10.0781,4.8125 C9.70312,5.14583 9.47917,5.75521 9.40625,6.64062 L13.4531,6.64062 M20.5781,6.375 L20.5781,10 L20.0781,10 L20.0781,6.40625 C20.0781,5.625 19.9531,5.07552 19.7031,4.75781 C19.4531,4.4401 19.0833,4.28125 18.5938,4.28125 C18.0208,4.28125 17.5365,4.45312 17.1406,4.79688 C16.724,5.14062 16.5156,5.73958 16.5156,6.59375 L16.5156,10 L16.0312,10 L16.0312,3.98438 L16.5156,3.98438 L16.5156,5.10938 C16.6927,4.74479 16.9271,4.46875 17.2188,4.28125 C17.6354,3.98958 18.099,3.84375 18.6094,3.84375 C19.2135,3.84375 19.6927,4.04688 20.0469,4.45312 C20.401,4.84896 20.5781,5.48958 20.5781,6.375 "/>
</g>

<g fill="none" stroke="#000000" stroke-opacity="1" stroke-width="1" stroke-linecap="square" stroke-linejoin="bevel" transform="matrix(2,0,0,2,552.83,23)"
font-family="sans" font-size="11" font-weight="100" font-style="normal" 
>
</g>

<g fill="none" stroke="#000000" stroke-opacity="1" stroke-width="1" stroke-linecap="square" stroke-linejoin="bevel" transform="matrix(2,0,0,2,552.83,23)"
font-family="Sans Serif" font-size="9" font-weight="400" font-style="normal" 
>
</g>

<g fill="none" stroke="#000000" stroke-opacity="1" stroke-width="1" stroke-linecap="square" stroke-linejoin="bevel" transform="matrix(2,0,0,2,0,72)"
font-family="Sans Serif" font-size="9" font-weight="400" font-style="normal" 
>
</g>

<g fill="none" stroke="#000000" stroke-opacity="1" stroke-width="1" stroke-linecap="square" stroke-linejoin="bevel" transform="matrix(2,0,0,2,0,72)"
font-family="Sans Serif" font-size="9" font-weight="400" font-style="normal" 
>
</g>

<g fill="none" stroke="#000000" stroke-opacity="1" stroke-width="1" stroke-linecap="square" stroke-linejoin="bevel" transform="matrix(2,0,0,2,0,72)"
font-family="Sans Serif" font-size="9" font-weight="400" font-style="normal" 
>
</g>

<g fill="none" stroke="#000000" stroke-opacity="1" stroke-width="1" stroke-linecap="square" stroke-linejoin="round" transform="matrix(2,0,0,2,0,72)"
font-family="Sans Serif" font-size="9" font-weight="400" font-style="normal" 
>
<ellipse cx="33.147" cy="-18" rx="32.647" ry="17.5"/>
</g>

<g fill="none" stroke="#000000" stroke-opacity="1" stroke-width="1" stroke-linecap="square" stroke-linejoin="bevel" transform="matrix(2,0,0,2,0,72)"
font-family="Sans Serif" font-size="9" font-weight="400" font-style="normal" 
>
</g>

<g fill="none" stroke="#000000" stroke-opacity="1" stroke-width="1" stroke-linecap="square" stroke-linejoin="bevel" transform="matrix(2,0,0,2,30.8565,23)"
font-family="Sans Serif" font-size="9" font-weight="400" font-style="normal" 
>
</g>

<g fill="none" stroke="#000000" stroke-opacity="1" stroke-width="1" stroke-linecap="square" stroke-linejoin="bevel" transform="matrix(2,0,0,2,30.8565,23)"
font-family="sans" font-size="11" font-weight="100" font-style="normal" 
>
</g>

<g fill="#000000" fill-opacity="1" stroke="#000000" stroke-opacity="1" stroke-width="1" stroke-linecap="square" stroke-linejoin="round" transform="matrix(2,0,0,2,30.8565,23)"
font-family="sans" font-size="11" font-weight="100" font-style="normal" 
>
<path vector-effect="none" fill-rule="nonzero" d="M2.96875,1.98438 L3.53125,1.98438 L0.734375,11.0156 L0.171875,11.0156 L2.96875,1.98438 M5.46875,2.28125 L5.46875,3.98438 L7.5,3.98438 L7.5,4.40625 L5.46875,4.40625 L5.46875,8.01562 C5.46875,8.47396 5.52604,8.79688 5.64062,8.98438 C5.89062,9.38021 6.25,9.57812 6.71875,9.57812 L7.5,9.57812 L7.5,10 L6.73438,10 C6.24479,10 5.82812,9.85677 5.48438,9.57031 C5.14062,9.28385 4.96875,8.76562 4.96875,8.01562 L4.96875,4.40625 L4.25,4.40625 L4.25,3.98438 L4.96875,3.98438 L4.96875,2.28125 L5.46875,2.28125 M11.6719,6.60938 C10.8698,6.60938 10.2943,6.75 9.94531,7.03125 C9.59635,7.3125 9.42188,7.72396 9.42188,8.26562 C9.42188,8.79688 9.56771,9.17448 9.85938,9.39844 C10.151,9.6224 10.4948,9.73438 10.8906,9.73438 C11.6406,9.73438 12.1823,9.41667 12.5156,8.78125 C12.849,8.13542 13.0156,7.53125 13.0156,6.96875 L13.0156,6.60938 L11.6719,6.60938 M13.5156,6.5625 L13.5156,10 L13.0156,10 L13.0156,8.35938 C12.7448,9.16146 12.3802,9.67188 11.9219,9.89062 C11.5677,10.0677 11.2083,10.1562 10.8438,10.1562 C10.25,10.1562 9.78125,9.99479 9.4375,9.67188 C9.09375,9.34896 8.92188,8.8776 8.92188,8.25781 C8.92188,7.63802 9.14583,7.14062 9.59375,6.76562 C10.0417,6.39062 10.7708,6.20312 11.7812,6.20312 L13.0156,6.20312 L13.0156,6.10938 C13.0156,5.57812 12.8594,5.14062 12.5469,4.79688 C12.2552,4.45312 11.7604,4.28125 11.0625,4.28125 C10.7188,4.28125 10.3698,4.34375 10.0156,4.46875 C9.78646,4.55208 9.48438,4.71875 9.10938,4.96875 L9.10938,4.4375 C9.43229,4.23958 9.73438,4.09896 10.0156,4.01562 C10.4115,3.90104 10.7917,3.84375 11.1562,3.84375 C11.875,3.84375 12.4635,4.05729 12.9219,4.48438 C13.3177,4.84896 13.5156,5.54167 13.5156,6.5625 M16,1.64062 L16.4844,1.64062 L16.4844,10 L16,10 L16,1.64062 M19.5469,1.64062 L20.0469,1.64062 L20.0469,6.71875 L23.0312,3.98438 L23.7031,3.98438 L20.5938,6.82812 L23.8125,10 L23.1719,10 L20.0469,6.92188 L20.0469,10 L19.5469,10 L19.5469,1.64062 M30.0938,6.75 L30.0938,7.0625 L25.5312,7.0625 C25.5312,8.02083 25.7188,8.69792 26.0938,9.09375 C26.5104,9.52083 27.125,9.73438 27.9375,9.73438 C28.1562,9.73438 28.4427,9.6875 28.7969,9.59375 C29.151,9.5 29.5052,9.35938 29.8594,9.17188 L29.8594,9.6875 C29.5052,9.84375 29.1432,9.96094 28.7734,10.0391 C28.4036,10.1172 28.1094,10.1562 27.8906,10.1562 C26.9635,10.1562 26.2656,9.90625 25.7969,9.40625 C25.2865,8.875 25.0312,8.09375 25.0312,7.0625 C25.0312,5.98958 25.2604,5.1875 25.7188,4.65625 C26.1979,4.11458 26.8646,3.84375 27.7188,3.84375 C28.5,3.84375 29.0938,4.10417 29.5,4.625 C29.8958,5.16667 30.0938,5.875 30.0938,6.75 M29.5938,6.64062 C29.5938,5.79688 29.401,5.18229 29.0156,4.79688 C28.7031,4.45312 28.2708,4.28125 27.7188,4.28125 C27.125,4.28125 26.625,4.45833 26.2188,4.8125 C25.8438,5.14583 25.6198,5.75521 25.5469,6.64062 L29.5938,6.64062 M35.4375,4.40625 C35.3542,4.36458 35.2448,4.33333 35.1094,4.3125 C34.9844,4.29167 34.8333,4.28125 34.6562,4.28125 C34.0417,4.28125 33.5365,4.50521 33.1406,4.95312 C32.8177,5.31771 32.6562,5.94271 32.6562,6.82812 L32.6562,10 L32.1719,10 L32.1719,3.98438 L32.6562,3.98438 L32.6562,5.10938 C32.8229,4.78646 33.0521,4.51562 33.3438,4.29688 C33.7396,3.99479 34.2083,3.84375 34.75,3.84375 C34.8958,3.84375 35.0208,3.84896 35.125,3.85938 C35.2292,3.85938 35.3333,3.86979 35.4375,3.89062 L35.4375,4.40625"/>
</g>

<g fill="none" stroke="#000000" stroke-opacity="1" stroke-width="1" stroke-linecap="square" stroke-linejoin="bevel" transform="matrix(2,0,0,2,30.8565,23)"
font-family="sans" font-size="11" font-weight="100" font-style="normal" 
>
</g>

<g fill="none" stroke="#000000" stroke-opacity="1" stroke-width="1" stroke-linecap="square" stroke-linejoin="bevel" transform="matrix(2,0,0,2,30.8565,23)"
font-family="Sans Serif" font-size="9" font-weight="400" font-style="normal" 
>
</g>

<g fill="none" stroke="#000000" stroke-opacity="1" stroke-width="1" stroke-linecap="square" stroke-linejoin="bevel" transform="matrix(2,0,0,2,0,72)"
font-family="Sans Serif" font-size="9" font-weight="400" font-style="normal" 
>
</g>

<g fill="none" stroke="#000000" stroke-opacity="1" stroke-width="1" stroke-linecap="square" stroke-linejoin="bevel" transform="matrix(2,0,0,2,0,72)"
font-family="Sans Serif" font-size="9" font-weight="400" font-style="normal" 
>
</g>

<g fill="none" stroke="#000000" stroke-opacity="1" stroke-width="1" stroke-linecap="square" stroke-linejoin="bevel" transform="matrix(2,0,0,2,0,72)"
font-family="Sans Serif" font-size="9" font-weight="400" font-style="normal" 
>
</g>

<g fill="none" stroke="#000000" stroke-opacity="1" stroke-width="1" stroke-linecap="square" stroke-linejoin="round" transform="matrix(2,0,0,2,0,72)"
font-family="Sans Serif" font-size="9" font-weight="400" font-style="normal" 
>
<ellipse cx="162.29" cy="-18" rx="38.4952" ry="17.5"/>
</g>

<g fill="none" stroke="#000000" stroke-opacity="1" stroke-width="1" stroke-linecap="square" stroke-linejoin="bevel" transform="matrix(2,0,0,2,0,72)"
font-family="Sans Serif" font-size="9" font-weight="400" font-style="normal" 
>
</g>

<g fill="none" stroke="#000000" stroke-opacity="1" stroke-width="1" stroke-linecap="square" stroke-linejoin="bevel" transform="matrix(2,0,0,2,279.736,23)"
font-family="Sans Serif" font-size="9" font-weight="400" font-style="normal" 
>
</g>

<g fill="none" stroke="#000000" stroke-opacity="1" stroke-width="1" stroke-linecap="square" stroke-linejoin="bevel" transform="matrix(2,0,0,2,279.736,23)"
font-family="sans" font-size="11" font-weight="100" font-style="normal" 
>
</g>

<g fill="#000000" fill-opacity="1" stroke="#000000" stroke-opacity="1" stroke-width="1" stroke-linecap="square" stroke-linejoin="round" transform="matrix(2,0,0,2,279.736,23)"
font-family="sans" font-size="11" font-weight="100" font-style="normal" 
>
<path vector-effect="none" fill-rule="nonzero" d="M2.96875,1.98438 L3.53125,1.98438 L0.734375,11.0156 L0.171875,11.0156 L2.96875,1.98438 M4.95312,1.64062 L5.4375,1.64062 L5.4375,10 L4.95312,10 L4.95312,1.64062 M7.98438,3.98438 L8.48438,3.98438 L8.48438,10 L7.98438,10 L7.98438,3.98438 M7.98438,1.64062 L8.48438,1.64062 L8.48438,2.3125 L7.98438,2.3125 L7.98438,1.64062 M14.4531,4.15625 L14.4531,4.70312 C14.099,4.50521 13.8802,4.39583 13.7969,4.375 C13.5469,4.32292 13.2344,4.29167 12.8594,4.28125 C12.2969,4.28125 11.8542,4.39062 11.5312,4.60938 C11.2812,4.79688 11.1562,5.11458 11.1562,5.5625 C11.1562,5.875 11.276,6.11458 11.5156,6.28125 C11.7552,6.46875 12.1042,6.61458 12.5625,6.71875 L12.9062,6.78125 C13.4792,6.90625 13.9115,7.08333 14.2031,7.3125 C14.5469,7.58333 14.724,7.92708 14.7344,8.34375 C14.7344,8.90625 14.5677,9.34896 14.2344,9.67188 C13.8802,9.99479 13.3021,10.1562 12.5,10.1562 C12.0625,10.1562 11.7292,10.125 11.5,10.0625 C11.2188,9.98958 10.9271,9.89583 10.625,9.78125 L10.625,9.15625 C11.0625,9.40625 11.3438,9.55208 11.4688,9.59375 C11.8229,9.6875 12.1771,9.73438 12.5312,9.73438 C13.1042,9.73438 13.5312,9.61458 13.8125,9.375 C14.0938,9.125 14.2344,8.80729 14.2344,8.42188 C14.2344,8.08854 14.1406,7.84896 13.9531,7.70312 C13.6823,7.48438 13.2552,7.30729 12.6719,7.17188 L12.3281,7.09375 C11.8177,6.96875 11.4323,6.80208 11.1719,6.59375 C10.8385,6.32292 10.6719,5.99479 10.6719,5.60938 C10.6719,4.98438 10.8724,4.53385 11.2734,4.25781 C11.6745,3.98177 12.1667,3.84375 12.75,3.84375 C13.25,3.84375 13.5938,3.86979 13.7812,3.92188 C14.0104,3.98438 14.2344,4.0625 14.4531,4.15625 M17.2812,2.28125 L17.2812,3.98438 L19.3125,3.98438 L19.3125,4.40625 L17.2812,4.40625 L17.2812,8.01562 C17.2812,8.47396 17.3385,8.79688 17.4531,8.98438 C17.7031,9.38021 18.0625,9.57812 18.5312,9.57812 L19.3125,9.57812 L19.3125,10 L18.5469,10 C18.0573,10 17.6406,9.85677 17.2969,9.57031 C16.9531,9.28385 16.7812,8.76562 16.7812,8.01562 L16.7812,4.40625 L16.0625,4.40625 L16.0625,3.98438 L16.7812,3.98438 L16.7812,2.28125 L17.2812,2.28125 M25.7656,6.75 L25.7656,7.0625 L21.2031,7.0625 C21.2031,8.02083 21.3906,8.69792 21.7656,9.09375 C22.1823,9.52083 22.7969,9.73438 23.6094,9.73438 C23.8281,9.73438 24.1146,9.6875 24.4688,9.59375 C24.8229,9.5 25.1771,9.35938 25.5312,9.17188 L25.5312,9.6875 C25.1771,9.84375 24.8151,9.96094 24.4453,10.0391 C24.0755,10.1172 23.7812,10.1562 23.5625,10.1562 C22.6354,10.1562 21.9375,9.90625 21.4688,9.40625 C20.9583,8.875 20.7031,8.09375 20.7031,7.0625 C20.7031,5.98958 20.9323,5.1875 21.3906,4.65625 C21.8698,4.11458 22.5365,3.84375 23.3906,3.84375 C24.1719,3.84375 24.7656,4.10417 25.1719,4.625 C25.5677,5.16667 25.7656,5.875 25.7656,6.75 M25.2656,6.64062 C25.2656,5.79688 25.0729,5.18229 24.6875,4.79688 C24.375,4.45312 23.9427,4.28125 23.3906,4.28125 C22.7969,4.28125 22.2969,4.45833 21.8906,4.8125 C21.5156,5.14583 21.2917,5.75521 21.2188,6.64062 L25.2656,6.64062 M32.3906,6.375 L32.3906,10 L31.8906,10 L31.8906,6.40625 C31.8906,5.625 31.7656,5.07552 31.5156,4.75781 C31.2656,4.4401 30.8958,4.28125 30.4062,4.28125 C29.8333,4.28125 29.349,4.45312 28.9531,4.79688 C28.5365,5.14062 28.3281,5.73958 28.3281,6.59375 L28.3281,10 L27.8438,10 L27.8438,3.98438 L28.3281,3.98438 L28.3281,5.10938 C28.5052,4.74479 28.7396,4.46875 29.0312,4.28125 C29.4479,3.98958 29.9115,3.84375 30.4219,3.84375 C31.026,3.84375 31.5052,4.04688 31.8594,4.45312 C32.2135,4.84896 32.3906,5.48958 32.3906,6.375 M39.5,6.75 L39.5,7.0625 L34.9375,7.0625 C34.9375,8.02083 35.125,8.69792 35.5,9.09375 C35.9167,9.52083 36.5312,9.73438 37.3438,9.73438 C37.5625,9.73438 37.849,9.6875 38.2031,9.59375 C38.5573,9.5 38.9115,9.35938 39.2656,9.17188 L39.2656,9.6875 C38.9115,9.84375 38.5495,9.96094 38.1797,10.0391 C37.8099,10.1172 37.5156,10.1562 37.2969,10.1562 C36.3698,10.1562 35.6719,9.90625 35.2031,9.40625 C34.6927,8.875 34.4375,8.09375 34.4375,7.0625 C34.4375,5.98958 34.6667,5.1875 35.125,4.65625 C35.6042,4.11458 36.2708,3.84375 37.125,3.84375 C37.9062,3.84375 38.5,4.10417 38.9062,4.625 C39.3021,5.16667 39.5,5.875 39.5,6.75 M39,6.64062 C39,5.79688 38.8073,5.18229 38.4219,4.79688 C38.1094,4.45312 37.6771,4.28125 37.125,4.28125 C36.5312,4.28125 36.0312,4.45833 35.625,4.8125 C35.25,5.14583 35.026,5.75521 34.9531,6.64062 L39,6.64062 M44.8438,4.40625 C44.7604,4.36458 44.651,4.33333 44.5156,4.3125 C44.3906,4.29167 44.2396,4.28125 44.0625,4.28125 C43.4479,4.28125 42.9427,4.50521 42.5469,4.95312 C42.224,5.31771 42.0625,5.94271 42.0625,6.82812 L42.0625,10 L41.5781,10 L41.5781,3.98438 L42.0625,3.98438 L42.0625,5.10938 C42.2292,4.78646 42.4583,4.51562 42.75,4.29688 C43.1458,3.99479 43.6146,3.84375 44.1562,3.84375 C44.3021,3.84375 44.4271,3.84896 44.5312,3.85938 C44.6354,3.85938 44.7396,3.86979 44.8438,3.89062 L44.8438,4.40625"/>
</g>

<g fill="none" stroke="#000000" stroke-opacity="1" stroke-width="1" stroke-linecap="square" stroke-linejoin="bevel" transform="matrix(2,0,0,2,279.736,23)"
font-family="sans" font-size="11" font-weight="100" font-style="normal" 
>
</g>

<g fill="none" stroke="#000000" stroke-opacity="1" stroke-width="1" stroke-linecap="square" stroke-linejoin="bevel" transform="matrix(2,0,0,2,279.736,23)"
font-family="Sans Serif" font-size="9" font-weight="400" font-style="normal" 
>
</g>

<g fill="none" stroke="#000000" stroke-opacity="1" stroke-width="1" stroke-linecap="square" stroke-linejoin="bevel" transform="matrix(2,0,0,2,0,72)"
font-family="Sans Serif" font-size="9" font-weight="400" font-style="normal" 
>
</g>

<g fill="none" stroke="#000000" stroke-opacity="1" stroke-width="1" stroke-linecap="square" stroke-linejoin="bevel" transform="matrix(2,0,0,2,0,72)"
font-family="Sans Serif" font-size="9" font-weight="400" font-style="normal" 
>
</g>

<g fill="none" stroke="#000000" stroke-opacity="1" stroke-width="1" stroke-linecap="square" stroke-linejoin="bevel" transform="matrix(2,0,0,2,0,72)"
font-family="Sans Serif" font-size="9" font-weight="400" font-style="normal" 
>
</g>

<g fill="none" stroke="#000000" stroke-opacity="1" stroke-width="1" stroke-linecap="square" stroke-linejoin="round" transform="matrix(2,0,0,2,0,72)"
font-family="Sans Serif" font-size="9" font-weight="400" font-style="normal" 
>
<path vector-effect="none" fill-rule="evenodd" d="M66.56,-18 C80.548,-18 97.21,-18 112.63,-18 "/>
</g>

<g fill="none" stroke="#000000" stroke-opacity="1" stroke-width="1" stroke-linecap="square" stroke-linejoin="bevel" transform="matrix(2,0,0,2,0,72)"
font-family="Sans Serif" font-size="9" font-weight="400" font-style="normal" 
>
</g>

<g fill="none" stroke="#000000" stroke-opacity="1" stroke-width="1" stroke-linecap="square" stroke-linejoin="bevel" transform="matrix(2,0,0,2,146.229,8)"
font-family="Sans Serif" font-size="9" font-weight="400" font-style="normal" 
>
</g>

<g fill="none" stroke="#000000" stroke-opacity="1" stroke-width="1" stroke-linecap="square" stroke-linejoin="bevel" transform="matrix(2,0,0,2,146.229,8)"
font-family="sans" font-size="11" font-weight="100" font-style="normal" 
>
</g>

<g fill="#000000" fill-opacity="1" stroke="#000000" stroke-opacity="1" stroke-width="1" stroke-linecap="square" stroke-linejoin="round" transform="matrix(2,0,0,2,146.229,8)"
font-family="sans" font-size="11" font-weight="100" font-style="normal" 
>
<path vector-effect="none" fill-rule="nonzero" d="M2.96875,1.98438 L3.53125,1.98438 L0.734375,11.0156 L0.171875,11.0156 L2.96875,1.98438 M9.0625,4.28125 L9.0625,4.79688 C8.77083,4.61979 8.52604,4.5 8.32812,4.4375 C7.99479,4.33333 7.67708,4.28125 7.375,4.28125 C6.51042,4.28125 5.89062,4.5026 5.51562,4.94531 C5.14062,5.38802 4.95312,6.07292 4.95312,7 C4.95312,7.9375 5.14062,8.6276 5.51562,9.07031 C5.89062,9.51302 6.51042,9.73438 7.375,9.73438 C7.66667,9.73438 7.94792,9.69271 8.21875,9.60938 C8.51042,9.53646 8.79167,9.42188 9.0625,9.26562 L9.0625,9.76562 C8.79167,9.90104 8.51042,10 8.21875,10.0625 C7.91667,10.125 7.61979,10.1562 7.32812,10.1562 C6.45312,10.1562 5.75521,9.91667 5.23438,9.4375 C4.71354,8.95833 4.45312,8.14323 4.45312,6.99219 C4.45312,5.84115 4.71354,5.02604 5.23438,4.54688 C5.75521,4.07812 6.45312,3.84375 7.32812,3.84375 C7.61979,3.84375 7.92708,3.88542 8.25,3.96875 C8.57292,4.04167 8.84375,4.14583 9.0625,4.28125 M15.5469,6.375 L15.5469,10 L15.0469,10 L15.0469,6.40625 C15.0469,5.625 14.9167,5.07552 14.6562,4.75781 C14.3958,4.4401 14,4.28125 13.4688,4.28125 C12.8542,4.28125 12.3698,4.45833 12.0156,4.8125 C11.6615,5.16667 11.4844,5.76042 11.4844,6.59375 L11.4844,10 L11,10 L11,1.64062 L11.4844,1.64062 L11.4844,5.09375 C11.599,4.79167 11.8073,4.52083 12.1094,4.28125 C12.4531,3.98958 12.9427,3.84375 13.5781,3.84375 C14.1823,3.84375 14.6615,4.05729 15.0156,4.48438 C15.3698,4.91146 15.5469,5.54167 15.5469,6.375 M20.375,6.60938 C19.5729,6.60938 18.9974,6.75 18.6484,7.03125 C18.2995,7.3125 18.125,7.72396 18.125,8.26562 C18.125,8.79688 18.2708,9.17448 18.5625,9.39844 C18.8542,9.6224 19.1979,9.73438 19.5938,9.73438 C20.3438,9.73438 20.8854,9.41667 21.2188,8.78125 C21.5521,8.13542 21.7188,7.53125 21.7188,6.96875 L21.7188,6.60938 L20.375,6.60938 M22.2188,6.5625 L22.2188,10 L21.7188,10 L21.7188,8.35938 C21.4479,9.16146 21.0833,9.67188 20.625,9.89062 C20.2708,10.0677 19.9115,10.1562 19.5469,10.1562 C18.9531,10.1562 18.4844,9.99479 18.1406,9.67188 C17.7969,9.34896 17.625,8.8776 17.625,8.25781 C17.625,7.63802 17.849,7.14062 18.2969,6.76562 C18.7448,6.39062 19.474,6.20312 20.4844,6.20312 L21.7188,6.20312 L21.7188,6.10938 C21.7188,5.57812 21.5625,5.14062 21.25,4.79688 C20.9583,4.45312 20.4635,4.28125 19.7656,4.28125 C19.4219,4.28125 19.0729,4.34375 18.7188,4.46875 C18.4896,4.55208 18.1875,4.71875 17.8125,4.96875 L17.8125,4.4375 C18.1354,4.23958 18.4375,4.09896 18.7188,4.01562 C19.1146,3.90104 19.4948,3.84375 19.8594,3.84375 C20.5781,3.84375 21.1667,4.05729 21.625,4.48438 C22.0208,4.84896 22.2188,5.54167 22.2188,6.5625 M25.2188,2.28125 L25.2188,3.98438 L27.25,3.98438 L27.25,4.40625 L25.2188,4.40625 L25.2188,8.01562 C25.2188,8.47396 25.276,8.79688 25.3906,8.98438 C25.6406,9.38021 26,9.57812 26.4688,9.57812 L27.25,9.57812 L27.25,10 L26.4844,10 C25.9948,10 25.5781,9.85677 25.2344,9.57031 C24.8906,9.28385 24.7188,8.76562 24.7188,8.01562 L24.7188,4.40625 L24,4.40625 L24,3.98438 L24.7188,3.98438 L24.7188,2.28125 L25.2188,2.28125 M29.5312,2.28125 L29.5312,3.98438 L31.5625,3.98438 L31.5625,4.40625 L29.5312,4.40625 L29.5312,8.01562 C29.5312,8.47396 29.5885,8.79688 29.7031,8.98438 C29.9531,9.38021 30.3125,9.57812 30.7812,9.57812 L31.5625,9.57812 L31.5625,10 L30.7969,10 C30.3073,10 29.8906,9.85677 29.5469,9.57031 C29.2031,9.28385 29.0312,8.76562 29.0312,8.01562 L29.0312,4.40625 L28.3125,4.40625 L28.3125,3.98438 L29.0312,3.98438 L29.0312,2.28125 L29.5312,2.28125 M38.0156,6.75 L38.0156,7.0625 L33.4531,7.0625 C33.4531,8.02083 33.6406,8.69792 34.0156,9.09375 C34.4323,9.52083 35.0469,9.73438 35.8594,9.73438 C36.0781,9.73438 36.3646,9.6875 36.7188,9.59375 C37.0729,9.5 37.4271,9.35938 37.7812,9.17188 L37.7812,9.6875 C37.4271,9.84375 37.0651,9.96094 36.6953,10.0391 C36.3255,10.1172 36.0312,10.1562 35.8125,10.1562 C34.8854,10.1562 34.1875,9.90625 33.7188,9.40625 C33.2083,8.875 32.9531,8.09375 32.9531,7.0625 C32.9531,5.98958 33.1823,5.1875 33.6406,4.65625 C34.1198,4.11458 34.7865,3.84375 35.6406,3.84375 C36.4219,3.84375 37.0156,4.10417 37.4219,4.625 C37.8177,5.16667 38.0156,5.875 38.0156,6.75 M37.5156,6.64062 C37.5156,5.79688 37.3229,5.18229 36.9375,4.79688 C36.625,4.45312 36.1927,4.28125 35.6406,4.28125 C35.0469,4.28125 34.5469,4.45833 34.1406,4.8125 C33.7656,5.14583 33.5417,5.75521 33.4688,6.64062 L37.5156,6.64062 M43.3594,4.40625 C43.276,4.36458 43.1667,4.33333 43.0312,4.3125 C42.9062,4.29167 42.7552,4.28125 42.5781,4.28125 C41.9635,4.28125 41.4583,4.50521 41.0625,4.95312 C40.7396,5.31771 40.5781,5.94271 40.5781,6.82812 L40.5781,10 L40.0938,10 L40.0938,3.98438 L40.5781,3.98438 L40.5781,5.10938 C40.7448,4.78646 40.974,4.51562 41.2656,4.29688 C41.6615,3.99479 42.1302,3.84375 42.6719,3.84375 C42.8177,3.84375 42.9427,3.84896 43.0469,3.85938 C43.151,3.85938 43.2552,3.86979 43.3594,3.89062 L43.3594,4.40625"/>
</g>

<g fill="none" stroke="#000000" stroke-opacity="1" stroke-width="1" stroke-linecap="square" stroke-linejoin="bevel" transform="matrix(2,0,0,2,146.229,8)"
font-family="sans" font-size="11" font-weight="100" font-style="normal" 
>
</g>

<g fill="none" stroke="#000000" stroke-opacity="1" stroke-width="1" stroke-linecap="square" stroke-linejoin="bevel" transform="matrix(2,0,0,2,146.229,8)"
font-family="Sans Serif" font-size="9" font-weight="400" font-style="normal" 
>
</g>

<g fill="none" stroke="#000000" stroke-opacity="1" stroke-width="1" stroke-linecap="square" stroke-linejoin="bevel" transform="matrix(2,0,0,2,0,72)"
font-family="Sans Serif" font-size="9" font-weight="400" font-style="normal" 
>
</g>

<g fill="#000000" fill-opacity="1" stroke="#000000" stroke-opacity="1" stroke-width="1" stroke-linecap="square" stroke-linejoin="round" transform="matrix(2,0,0,2,0,72)"
font-family="Sans Serif" font-size="9" font-weight="400" font-style="normal" 
>
<path vector-effect="none" fill-rule="evenodd" d="M112.63,-18 L112.63,-14.3495 L123.06,-18 L112.63,-21.6505 L112.63,-18"/>
</g>

<g fill="none" stroke="#000000" stroke-opacity="1" stroke-width="1" stroke-linecap="square" stroke-linejoin="bevel" transform="matrix(2,0,0,2,0,72)"
font-family="Sans Serif" font-size="9" font-weight="400" font-style="normal" 
>
</g>

<g fill="none" stroke="#000000" stroke-opacity="1" stroke-width="1" stroke-linecap="square" stroke-linejoin="bevel" transform="matrix(2,0,0,2,0,72)"
font-family="Sans Serif" font-size="9" font-weight="400" font-style="normal" 
>
</g>

<g fill="none" stroke="#000000" stroke-opacity="1" stroke-width="1" stroke-linecap="square" stroke-linejoin="bevel" transform="matrix(2,0,0,2,0,72)"
font-family="Sans Serif" font-size="9" font-weight="400" font-style="normal" 
>
</g>

<g fill="none" stroke="#000000" stroke-opacity="1" stroke-width="1" stroke-linecap="square" stroke-linejoin="bevel" transform="matrix(2,0,0,2,0,72)"
font-family="Sans Serif" font-size="9" font-weight="400" font-style="normal" 
>
</g>

<g fill="none" stroke="#000000" stroke-opacity="1" stroke-width="1" stroke-linecap="square" stroke-linejoin="round" transform="matrix(2,0,0,2,0,72)"
font-family="Sans Serif" font-size="9" font-weight="400" font-style="normal" 
>
<path vector-effect="none" fill-rule="evenodd" d="M201.53,-18 C217,-18 234.78,-18 250.04,-18 "/>
</g>

<g fill="none" stroke="#000000" stroke-opacity="1" stroke-width="1" stroke-linecap="square" stroke-linejoin="bevel" transform="matrix(2,0,0,2,0,72)"
font-family="Sans Serif" font-size="9" font-weight="400" font-style="normal" 
>
</g>

<g fill="none" stroke="#000000" stroke-opacity="1" stroke-width="1" stroke-linecap="square" stroke-linejoin="bevel" transform="matrix(2,0,0,2,418.596,8)"
font-family="Sans Serif" font-size="9" font-weight="400" font-style="normal" 
>
</g>

<g fill="none" stroke="#000000" stroke-opacity="1" stroke-width="1" stroke-linecap="square" stroke-linejoin="bevel" transform="matrix(2,0,0,2,418.596,8)"
font-family="sans" font-size="11" font-weight="100" font-style="normal" 
>
</g>

<g fill="#000000" fill-opacity="1" stroke="#000000" stroke-opacity="1" stroke-width="1" stroke-linecap="square" stroke-linejoin="round" transform="matrix(2,0,0,2,418.596,8)"
font-family="sans" font-size="11" font-weight="100" font-style="normal" 
>
<path vector-effect="none" fill-rule="nonzero" d="M2.96875,1.98438 L3.53125,1.98438 L0.734375,11.0156 L0.171875,11.0156 L2.96875,1.98438 M7.53125,1.64062 L7.53125,2.0625 L6.84375,2.0625 C6.47917,2.0625 6.19792,2.15625 6,2.34375 C5.76042,2.57292 5.64062,2.94271 5.64062,3.45312 L5.64062,3.98438 L7.26562,3.98438 L7.26562,4.40625 L5.64062,4.40625 L5.64062,10 L5.14062,10 L5.14062,4.40625 L4.20312,4.40625 L4.20312,3.98438 L5.14062,3.98438 L5.14062,3.5625 C5.14062,2.89583 5.29688,2.41146 5.60938,2.10938 C5.91146,1.79688 6.32292,1.64062 6.84375,1.64062 L7.53125,1.64062 M8.79688,3.98438 L9.29688,3.98438 L9.29688,10 L8.79688,10 L8.79688,3.98438 M8.79688,1.64062 L9.29688,1.64062 L9.29688,2.3125 L8.79688,2.3125 L8.79688,1.64062 M11.8594,1.64062 L12.3438,1.64062 L12.3438,10 L11.8594,10 L11.8594,1.64062 M15.4219,2.28125 L15.4219,3.98438 L17.4531,3.98438 L17.4531,4.40625 L15.4219,4.40625 L15.4219,8.01562 C15.4219,8.47396 15.4792,8.79688 15.5938,8.98438 C15.8438,9.38021 16.2031,9.57812 16.6719,9.57812 L17.4531,9.57812 L17.4531,10 L16.6875,10 C16.1979,10 15.7812,9.85677 15.4375,9.57031 C15.0938,9.28385 14.9219,8.76562 14.9219,8.01562 L14.9219,4.40625 L14.2031,4.40625 L14.2031,3.98438 L14.9219,3.98438 L14.9219,2.28125 L15.4219,2.28125 M23.9062,6.75 L23.9062,7.0625 L19.3438,7.0625 C19.3438,8.02083 19.5312,8.69792 19.9062,9.09375 C20.3229,9.52083 20.9375,9.73438 21.75,9.73438 C21.9688,9.73438 22.2552,9.6875 22.6094,9.59375 C22.9635,9.5 23.3177,9.35938 23.6719,9.17188 L23.6719,9.6875 C23.3177,9.84375 22.9557,9.96094 22.5859,10.0391 C22.2161,10.1172 21.9219,10.1562 21.7031,10.1562 C20.776,10.1562 20.0781,9.90625 19.6094,9.40625 C19.099,8.875 18.8438,8.09375 18.8438,7.0625 C18.8438,5.98958 19.0729,5.1875 19.5312,4.65625 C20.0104,4.11458 20.6771,3.84375 21.5312,3.84375 C22.3125,3.84375 22.9062,4.10417 23.3125,4.625 C23.7083,5.16667 23.9062,5.875 23.9062,6.75 M23.4062,6.64062 C23.4062,5.79688 23.2135,5.18229 22.8281,4.79688 C22.5156,4.45312 22.0833,4.28125 21.5312,4.28125 C20.9375,4.28125 20.4375,4.45833 20.0312,4.8125 C19.6562,5.14583 19.4323,5.75521 19.3594,6.64062 L23.4062,6.64062 M29.25,4.40625 C29.1667,4.36458 29.0573,4.33333 28.9219,4.3125 C28.7969,4.29167 28.6458,4.28125 28.4688,4.28125 C27.8542,4.28125 27.349,4.50521 26.9531,4.95312 C26.6302,5.31771 26.4688,5.94271 26.4688,6.82812 L26.4688,10 L25.9844,10 L25.9844,3.98438 L26.4688,3.98438 L26.4688,5.10938 C26.6354,4.78646 26.8646,4.51562 27.1562,4.29688 C27.5521,3.99479 28.0208,3.84375 28.5625,3.84375 C28.7083,3.84375 28.8333,3.84896 28.9375,3.85938 C29.0417,3.85938 29.1458,3.86979 29.25,3.89062 L29.25,4.40625 M35.1875,6.75 L35.1875,7.0625 L30.625,7.0625 C30.625,8.02083 30.8125,8.69792 31.1875,9.09375 C31.6042,9.52083 32.2188,9.73438 33.0312,9.73438 C33.25,9.73438 33.5365,9.6875 33.8906,9.59375 C34.2448,9.5 34.599,9.35938 34.9531,9.17188 L34.9531,9.6875 C34.599,9.84375 34.237,9.96094 33.8672,10.0391 C33.4974,10.1172 33.2031,10.1562 32.9844,10.1562 C32.0573,10.1562 31.3594,9.90625 30.8906,9.40625 C30.3802,8.875 30.125,8.09375 30.125,7.0625 C30.125,5.98958 30.3542,5.1875 30.8125,4.65625 C31.2917,4.11458 31.9583,3.84375 32.8125,3.84375 C33.5938,3.84375 34.1875,4.10417 34.5938,4.625 C34.9896,5.16667 35.1875,5.875 35.1875,6.75 M34.6875,6.64062 C34.6875,5.79688 34.4948,5.18229 34.1094,4.79688 C33.7969,4.45312 33.3646,4.28125 32.8125,4.28125 C32.2188,4.28125 31.7188,4.45833 31.3125,4.8125 C30.9375,5.14583 30.7135,5.75521 30.6406,6.64062 L34.6875,6.64062 M41.6406,5.35938 L41.6406,1.64062 L42.125,1.64062 L42.125,10 L41.6406,10 L41.6406,8.64062 C41.4115,9.16146 41.1667,9.51562 40.9062,9.70312 C40.5,10.0052 40.1198,10.1562 39.7656,10.1562 C39.0469,10.1562 38.4505,9.86719 37.9766,9.28906 C37.5026,8.71094 37.2656,7.94792 37.2656,7 C37.2656,6.05208 37.5026,5.28906 37.9766,4.71094 C38.4505,4.13281 39.0469,3.84375 39.7656,3.84375 C40.1198,3.84375 40.5,3.98958 40.9062,4.28125 C41.1667,4.47917 41.4115,4.83854 41.6406,5.35938 M38.4219,4.90625 C38.0052,5.32292 37.7969,6.02083 37.7969,7 C37.7969,7.97917 38.0052,8.67708 38.4219,9.09375 C38.8281,9.51042 39.2604,9.71875 39.7188,9.71875 C40.1667,9.71875 40.599,9.51042 41.0156,9.09375 C41.4323,8.67708 41.6406,7.97917 41.6406,7 C41.6406,6.02083 41.4323,5.32292 41.0156,4.90625 C40.599,4.48958 40.1667,4.28125 39.7188,4.28125 C39.2604,4.28125 38.8281,4.48958 38.4219,4.90625 "/>
</g>

<g fill="none" stroke="#000000" stroke-opacity="1" stroke-width="1" stroke-linecap="square" stroke-linejoin="bevel" transform="matrix(2,0,0,2,418.596,8)"
font-family="sans" font-size="11" font-weight="100" font-style="normal" 
>
</g>

<g fill="none" stroke="#000000" stroke-opacity="1" stroke-width="1" stroke-linecap="square" stroke-linejoin="bevel" transform="matrix(2,0,0,2,418.596,8)"
font-family="Sans Serif" font-size="9" font-weight="400" font-style="normal" 
>
</g>

<g fill="none" stroke="#000000" stroke-opacity="1" stroke-width="1" stroke-linecap="square" stroke-linejoin="bevel" transform="matrix(2,0,0,2,0,72)"
font-family="Sans Serif" font-size="9" font-weight="400" font-style="normal" 
>
</g>

<g fill="#000000" fill-opacity="1" stroke="#000000" stroke-opacity="1" stroke-width="1" stroke-linecap="square" stroke-linejoin="round" transform="matrix(2,0,0,2,0,72)"
font-family="Sans Serif" font-size="9" font-weight="400" font-style="normal" 
>
<path vector-effect="none" fill-rule="evenodd" d="M250.04,-18 L250.04,-14.465 L260.14,-18 L250.04,-21.535 L250.04,-18"/>
</g>

<g fill="none" stroke="#000000" stroke-opacity="1" stroke-width="1" stroke-linecap="square" stroke-linejoin="bevel" transform="matrix(2,0,0,2,0,72)"
font-family="Sans Serif" font-size="9" font-weight="400" font-style="normal" 
>
</g>

<g fill="none" stroke="#000000" stroke-opacity="1" stroke-width="1" stroke-linecap="square" stroke-linejoin="bevel" transform="matrix(1,0,0,1,0,0)"
font-family="Sans Serif" font-size="9" font-weight="400" font-style="normal" 
>
</g>
</g>
</svg>
